# xmcd
#
# Track frame offsets:
#	150
#	9212
#	28502
#	45177
#	57042
#	70305
#	84742
#	98417
#	110595
#	125297
#	142897
#	157635
#	170475
#	183187
#	201290
#	213325
#	232952
#
# Disc length: 3257
#
# Revision: 3
# Processed by: cddbd v1.5.1PL0 Copyright (c) Steve Scherf et al.
# Submitted via: CDex 1.30Release
# Normalized: r2:TDELIM( - )
#
DISCID=c80cb711
DTITLE=Artis - ountry Time - Country Time - CD 2
DYEAR=1900
DGENRE=Country
TTITLE0=Frankie Laine With Jimmy Carrol and His Orchestra - Rawhide
TTITLE1=David Allan Coe - Please Come To Boston
TTITLE2=Johnny Cash - A Boy Named Sue
TTITLE3=Tammy Wynette - There Goes My Everything
TTITLE4=Charlie Rich - Behind Closed Doors
TTITLE5=David Allan Coe - Willie, Waylon And Me
TTITLE6=Sweethearts Of The Rodeo - Gotta Get Away
TTITLE7=Merle Haggard - If You Want To Be My Woman
TTITLE8=George Jones - He Stopped Loving Her Today
TTITLE9=Rosanne Cash - Runaway Train
TTITLE10=Rodney Crowell - I Couldn't Leave You If I Tried
TTITLE11=Lynn Anderson - Rose Garden
TTITLE12=Carl Smith - Let Old Mother Nature Have Her Way
TTITLE13=Dolly Parton - The River Unbroken
TTITLE14=Tammy Wynette - Stand By Your Man
TTITLE15=Marty Robbins - El Paso
TTITLE16=Willie Nelson - On The Road Again
EXTD=ID3G:   2
EXTT0=
EXTT1=
EXTT2=
EXTT3=
EXTT4=
EXTT5=
EXTT6=
EXTT7=
EXTT8=
EXTT9=
EXTT10=
EXTT11=
EXTT12=
EXTT13=
EXTT14=
EXTT15=
EXTT16=
PLAYORDER=
